<?xml version="1.0" encoding="utf-8"?>
<!-- Generator: Adobe Illustrator 16.0.0, SVG Export Plug-In . SVG Version: 6.00 Build 0)  -->
<!DOCTYPE svg PUBLIC "-//W3C//DTD SVG 1.1//EN" "http://www.w3.org/Graphics/SVG/1.1/DTD/svg11.dtd">
<svg version="1.1" id="a622e68e-7a65-46e9-94a9-d455de519afc"
	 xmlns="http://www.w3.org/2000/svg" xmlns:xlink="http://www.w3.org/1999/xlink" x="0px" y="0px" width="699.22px"
	 height="361.328px" viewBox="0 0 699.22 361.328" enable-background="new 0 0 699.22 361.328" xml:space="preserve">
<title>responsive</title>
<g opacity="0.7">
	
		<linearGradient id="SVGID_1_" gradientUnits="userSpaceOnUse" x1="559.6968" y1="-139.7788" x2="559.6968" y2="198" gradientTransform="matrix(1 0 0 -1 -210.2798 198)">
		<stop  offset="0" style="stop-color:#808080;stop-opacity:0.25"/>
		<stop  offset="0.54" style="stop-color:#808080;stop-opacity:0.12"/>
		<stop  offset="1" style="stop-color:#808080;stop-opacity:0.1"/>
	</linearGradient>
	<path fill="url(#SVGID_1_)" d="M531.744,0H167.089c-6.508,0.024-11.765,5.316-11.745,11.824v250.977
		c-0.02,6.507,5.237,11.801,11.745,11.824h125.417v43.322h-5.718c-3.301,0.012-5.967,2.697-5.956,5.998l0,0v8.692h11.674v5.142
		h113.821v-5.142h11.674v-8.692c0.011-3.301-2.654-5.986-5.955-5.998l0,0h-5.38v-0.375h-0.367v-42.947h125.445
		c6.508-0.023,11.765-5.317,11.745-11.824V11.824C543.508,5.316,538.251,0.024,531.744,0z"/>
</g>
<rect x="293.607" y="267.164" fill="#BDBDBD" width="112.339" height="66.251"/>
<g opacity="0.1">
	<path d="M295.818,273.646h108.141c1.302-5.668,2.348-9.361,2.348-9.361H293.247C293.247,264.284,294.407,267.964,295.818,273.646z"
		/>
</g>
<path fill="#535461" d="M169.818,2.16h359.917c6.402,0,11.594,5.191,11.594,11.594v221.725l0,0H158.225l0,0V13.754
	C158.225,7.351,163.416,2.16,169.818,2.16L169.818,2.16z"/>
<path fill="#BDBDBD" d="M529.735,271.485H169.818c-6.403,0-11.594-5.19-11.594-11.594v-24.413h383.104v24.413
	C541.329,266.295,536.137,271.485,529.735,271.485z"/>
<circle fill="#535461" cx="349.776" cy="253.482" r="6.481"/>
<path fill="#BDBDBD" d="M287.968,313.972h123.616c3.249,0,5.883,2.635,5.883,5.884v8.52l0,0H282.085l0,0v-8.52
	C282.085,316.606,284.719,313.972,287.968,313.972L287.968,313.972z"/>
<g opacity="0.5">
	
		<linearGradient id="SVGID_2_" gradientUnits="userSpaceOnUse" x1="445.7764" y1="210.5757" x2="445.7764" y2="345.7856" gradientTransform="matrix(1 0 0 -1 -96 397)">
		<stop  offset="0" style="stop-color:#808080;stop-opacity:0.25"/>
		<stop  offset="0.54" style="stop-color:#808080;stop-opacity:0.12"/>
		<stop  offset="1" style="stop-color:#808080;stop-opacity:0.1"/>
	</linearGradient>
	<path fill="url(#SVGID_2_)" d="M234.197,51.215h231.159c1.789,0,3.24,1.451,3.24,3.241v128.729c0,1.79-1.451,3.24-3.24,3.24
		H234.197c-1.79,0-3.24-1.451-3.24-3.24V54.456C230.957,52.666,232.408,51.215,234.197,51.215z"/>
</g>
<path fill="#FFFFFF" d="M237.244,52.208H462.31c1.79,0,3.24,1.451,3.24,3.241v125.992c0,1.79-1.45,3.24-3.24,3.24H237.244
	c-1.79,0-3.241-1.451-3.241-3.24V55.449C234.003,53.66,235.454,52.208,237.244,52.208z"/>
<g opacity="0.5">
	<path fill="#FF6347" d="M301.744,71.227h19.041c1.79,0,3.24,1.451,3.24,3.241v16.491c0,1.79-1.451,3.24-3.24,3.24h-19.041
		c-1.789,0-3.241-1.451-3.241-3.24V74.468C298.503,72.678,299.955,71.227,301.744,71.227z"/>
</g>
<path fill="#E0E0E0" d="M332.955,71.227h66.358c0.705,0,1.276,0.571,1.276,1.275l0,0c0,0.704-0.571,1.274-1.276,1.274h-66.358
	c-0.704,0-1.275-0.571-1.275-1.274l0,0C331.68,71.798,332.251,71.227,332.955,71.227z"/>
<path fill="#E0E0E0" d="M332.955,78.889h54.729c0.703,0,1.274,0.57,1.274,1.274l0,0c0,0.704-0.571,1.274-1.274,1.274h-54.729
	c-0.704,0-1.275-0.57-1.275-1.274l0,0C331.68,79.459,332.251,78.889,332.955,78.889z"/>
<g opacity="0.5">
	<path fill="#FF6347" d="M301.744,106.959h19.041c1.79,0,3.24,1.451,3.24,3.241v16.491c0,1.789-1.451,3.24-3.24,3.24h-19.041
		c-1.789,0-3.241-1.451-3.241-3.24V110.2C298.503,108.41,299.955,106.959,301.744,106.959z"/>
</g>
<path fill="#E0E0E0" d="M332.955,106.959h66.358c0.705,0,1.276,0.571,1.276,1.275l0,0c0,0.704-0.571,1.274-1.276,1.274h-66.358
	c-0.704,0-1.275-0.57-1.275-1.274l0,0C331.68,107.53,332.251,106.959,332.955,106.959z"/>
<path fill="#E0E0E0" d="M332.955,114.614h66.358c0.705,0,1.276,0.571,1.276,1.275l0,0c0,0.704-0.571,1.274-1.276,1.274h-66.358
	c-0.704,0-1.275-0.571-1.275-1.274l0,0C331.68,115.185,332.251,114.614,332.955,114.614z"/>
<g opacity="0.5">
	<path fill="#FF6347" d="M301.744,142.691h19.041c1.79,0,3.24,1.451,3.24,3.241v16.491c0,1.79-1.451,3.241-3.24,3.241h-19.041
		c-1.789,0-3.241-1.451-3.241-3.241v-16.491C298.503,144.143,299.955,142.691,301.744,142.691z"/>
</g>
<path fill="#E0E0E0" d="M332.955,142.691h66.358c0.705,0,1.276,0.571,1.276,1.275l0,0c0,0.704-0.571,1.274-1.276,1.274h-66.358
	c-0.704,0-1.275-0.571-1.275-1.274l0,0C331.68,143.262,332.251,142.691,332.955,142.691z"/>
<path fill="#E0E0E0" d="M332.825,150.346h67.079c0.633,0,1.145,0.513,1.145,1.146v0.259c0,0.632-0.512,1.145-1.145,1.145h-67.079
	c-0.632,0-1.145-0.513-1.145-1.145v-0.259C331.68,150.859,332.192,150.346,332.825,150.346z"/>
<line fill="none" stroke="#FF6347" stroke-width="2" stroke-miterlimit="10" x1="349.776" y1="30.245" x2="349.776" y2="14.402"/>
<line fill="none" stroke="#FF6347" stroke-width="2" stroke-miterlimit="10" x1="349.776" y1="56.89" x2="349.776" y2="36.1"/>
<circle fill="#FF6347" cx="349.776" cy="56.889" r="2.881"/>
<circle fill="none" stroke="#FFFFFF" stroke-miterlimit="10" cx="349.776" cy="33.125" r="2.88"/>
<line fill="none" stroke="#FF6347" stroke-width="2" stroke-miterlimit="10" x1="349.776" y1="30.245" x2="349.776" y2="14.402"/>
<line fill="none" stroke="#FF6347" stroke-width="2" stroke-miterlimit="10" x1="349.776" y1="56.89" x2="349.776" y2="36.1"/>
<circle fill="#FF6347" cx="349.776" cy="56.889" r="2.881"/>
<circle fill="none" stroke="#FFFFFF" stroke-miterlimit="10" cx="349.776" cy="33.125" r="2.88"/>
<line fill="none" stroke="#FF6347" stroke-width="2" stroke-miterlimit="10" x1="349.776" y1="200.914" x2="349.776" y2="223.237"/>
<line fill="none" stroke="#FF6347" stroke-width="2" stroke-miterlimit="10" x1="349.776" y1="180.75" x2="349.776" y2="201.54"/>
<circle fill="#FF6347" cx="349.776" cy="180.75" r="2.88"/>
<line fill="none" stroke="#FF6347" stroke-width="2" stroke-miterlimit="10" x1="220.155" y1="121.34" x2="197.471" y2="121.34"/>
<line fill="none" stroke="#FF6347" stroke-width="2" stroke-miterlimit="10" x1="239.958" y1="121.34" x2="219.168" y2="121.34"/>
<circle fill="#FF6347" cx="239.958" cy="121.34" r="2.881"/>
<g opacity="0.1">
	<rect x="293.967" y="313.612" width="112.339" height="2.16"/>
</g>
<g opacity="0.7">
	
		<linearGradient id="SVGID_3_" gradientUnits="userSpaceOnUse" x1="223.0415" y1="-29.5264" x2="346.1738" y2="-29.5264" gradientTransform="matrix(1 0 0 -1 -210.2798 198)">
		<stop  offset="0" style="stop-color:#808080;stop-opacity:0.25"/>
		<stop  offset="0.54" style="stop-color:#808080;stop-opacity:0.12"/>
		<stop  offset="1" style="stop-color:#808080;stop-opacity:0.1"/>
	</linearGradient>
	<path fill="url(#SVGID_3_)" d="M129.045,264.327H76.909l0.72-5.862c14.733-13.229,24.261-48.471,24.261-48.471
		c-0.211,0.029-0.42,0.073-0.626,0.13c-8.641,1.743-14.791,5.293-19.09,9.563l1.829-15.598
		c27.221-5.862,38.015-41.868,38.015-41.868c-17.37,3.853-28.2,9.815-34.926,15.475l2.679-22.914
		c18.406,6.315,37.446-27.234,37.446-27.234l-0.72-0.151l0.36-0.23l-0.547,0.194c-20.344-4.386-31.217,7.244-34.746,12.076
		l0.267-2.247c-0.538,1.44-1.061,2.852-1.57,4.234l0,0v0.057c-1.44,3.903-2.758,7.758-3.954,11.565l0,0l0,0
		c-1.042,3.25-2.016,6.467-2.923,9.649v-0.043c0,0-0.843-20.495-22.454-25.888c0,0,2.269,44.698,19.393,37.381l0,0
		c-1.584,6.481-2.88,12.717-4.004,18.774l0,0c-0.715,3.941-1.339,7.782-1.873,11.522l-0.101,0.115l0.101-0.087l-0.043,0.295l0,0l0,0
		c-0.48,3.395-0.888,6.702-1.224,9.923c0.331-6.208-0.8-24.139-21.928-40.989c0,0-28.085,49.357,19.803,59.05
		c0.108,0.093,0.216,0.187,0.317,0.273l-0.072-0.223l0.432,0.094l0.194-2.535c-0.577,10.58-0.521,21.184,0.166,31.757l0,0
		c0.05,0.721,0.101,1.44,0.151,2.124H19.508c-20.12,41.616,11.176,64.423,11.176,64.423h86.415
		C150.656,286.363,129.045,264.327,129.045,264.327z M72.876,217.029L72.876,217.029L72.876,217.029z"/>
</g>
<path opacity="0.6" fill="none" stroke="#535461" stroke-width="3" stroke-miterlimit="10" enable-background="new    " d="
	M73.971,280.127c0,0-13.682-59.771,16.563-136.823"/>
<path fill="#FF6347" d="M20.682,262.123H126.54c0,0,20.883,26.645-11.522,66.252H31.484C31.484,328.375,1.239,301.01,20.682,262.123
	z"/>
<path fill="#4DB6AC" d="M89.014,147.265c0,0,10.521-18.723,35.726-12.962c0,0-20.833,35.473-39.606,23.857L89.014,147.265z"/>
<path fill="#4DB6AC" d="M82.346,167.132c0,0-0.813-19.148-21.697-24.188c0,0,2.161,41.767,18.723,34.926L82.346,167.132z"/>
<path fill="#4DB6AC" d="M75.519,195.411c0,0,3.853-20.062,44.179-28.704c0,0-12.861,41.494-46.037,39.831L75.519,195.411z"/>
<path fill="#4DB6AC" d="M72.25,217.93c0,0,4.242-20.977-20.962-40.42c0,0-27.365,46.57,19.789,55.327L72.25,217.93z"/>
<path fill="#4DB6AC" d="M71.493,246.763c0,0-2.923-29.647,28.762-35.408c0,0-11.573,41.4-28.805,48.781L71.493,246.763z"/>
<path opacity="0.3" fill="none" stroke="#535461" stroke-miterlimit="10" enable-background="new    " d="M85.493,158.426
	c0,0,27.365-20.883,38.887-24.484"/>
<path opacity="0.3" fill="none" stroke="#535461" stroke-miterlimit="10" enable-background="new    " d="M73.611,206.314
	c0,0,33.125-35.286,46.087-39.607"/>
<path opacity="0.3" fill="none" stroke="#535461" stroke-miterlimit="10" enable-background="new    " d="M60.648,142.944
	c0,0,20.164,27.364,18.723,34.565"/>
<path opacity="0.3" fill="none" stroke="#535461" stroke-miterlimit="10" enable-background="new    " d="M51.287,177.509
	c0,0,10.802,48.968,19.443,55.449"/>
<path opacity="0.3" fill="none" stroke="#535461" stroke-miterlimit="10" enable-background="new    " d="M71.45,260.323
	c0,0,17.283-47.528,28.805-48.968"/>
<g opacity="0.1">
	<path d="M126.54,262.123H20.682c-0.238,0.482-0.469,0.965-0.72,1.44h102.977c0,0,20.372,26.004-10.37,64.812h2.449
		C147.423,288.768,126.54,262.123,126.54,262.123z"/>
</g>
<rect y="328.086" fill="#E0E0E0" width="699.553" height="23.714"/>
<rect x="29.64" y="351.8" fill="#E0E0E0" width="640.265" height="9.7"/>
<rect x="29.64" y="351.8" opacity="0.1" enable-background="new    " width="640.265" height="3.233"/>
<line fill="none" stroke="#FF6347" stroke-width="2" stroke-miterlimit="10" x1="497.042" y1="121.34" x2="501.362" y2="121.34"/>
<line fill="none" stroke="#FF6347" stroke-width="2" stroke-miterlimit="10" x1="458.875" y1="121.34" x2="491.193" y2="121.34"/>
<circle fill="#FF6347" cx="458.875" cy="121.34" r="2.881"/>
<circle fill="none" stroke="#FFFFFF" stroke-miterlimit="10" cx="494.161" cy="121.34" r="2.881"/>
<g opacity="0.7">
	
		<linearGradient id="SVGID_4_" gradientUnits="userSpaceOnUse" x1="799.8569" y1="-67.9224" x2="870.3979" y2="-67.9224" gradientTransform="matrix(1 0 0 -1 -210.2798 198)">
		<stop  offset="0" style="stop-color:#808080;stop-opacity:0.25"/>
		<stop  offset="0.54" style="stop-color:#808080;stop-opacity:0.12"/>
		<stop  offset="1" style="stop-color:#808080;stop-opacity:0.1"/>
	</linearGradient>
	<path fill="url(#SVGID_4_)" d="M657.268,320.367l0.071-0.108c0.149-0.23,0.295-0.471,0.438-0.72l0.081-0.137
		c0.139-0.236,0.271-0.476,0.395-0.721l0.064-0.122c0.146-0.281,0.281-0.563,0.404-0.857l0,0c0.26-0.589,0.485-1.192,0.677-1.808
		l0.072-0.237c0.065-0.223,0.13-0.446,0.188-0.67l0.071-0.316c0.048-0.201,0.092-0.406,0.13-0.612c0-0.115,0.044-0.23,0.064-0.346
		c0.021-0.115,0.064-0.403,0.095-0.612c0.027-0.209,0-0.237,0.042-0.353c0.044-0.115,0.044-0.439,0.058-0.663
		c0-0.101,0-0.208,0-0.309c0-0.324,0-0.656,0-0.98v-59.474h-9.974v-29.151h-12.242v29.151h-8.438v-41.868h-12.242v41.868h-4.602
		V203.47h-12.242v47.852h-10.802v59.482c0,9.707,8.071,17.571,18.003,17.571h34.565c5.73,0.022,11.134-2.664,14.575-7.244l0,0
		C656.898,320.876,657.081,320.621,657.268,320.367z"/>
</g>
<rect x="601.819" y="231.158" fill="#535461" width="11.521" height="72.012"/>
<rect x="601.819" y="207.395" fill="#3AD29F" width="11.521" height="23.764"/>
<rect x="617.661" y="236.919" fill="#535461" width="11.522" height="72.012"/>
<rect x="617.661" y="213.155" fill="#4D8AF0" width="11.522" height="23.764"/>
<rect x="637.104" y="249.161" fill="#535461" width="11.522" height="72.012"/>
<rect x="637.104" y="225.397" fill="#F55F44" width="11.522" height="23.764"/>
<path fill="#FF6347" d="M591.737,253.482h66.251l0,0v57.249c0,9.347-7.577,16.923-16.923,16.923H608.66
	c-9.346,0-16.923-7.576-16.923-16.923V253.482L591.737,253.482z"/>
<g opacity="0.1">
	<path d="M591.737,253.482v2.88h63.37v57.25c0.006,3.784-1.263,7.459-3.601,10.435c4.095-3.204,6.485-8.115,6.481-13.315v-57.249
		H591.737z"/>
</g>
</svg>
