<?xml version="1.0" encoding="utf-8"?>
<!-- Generator: Adobe Illustrator 16.0.0, SVG Export Plug-In . SVG Version: 6.00 Build 0)  -->
<!DOCTYPE svg PUBLIC "-//W3C//DTD SVG 1.1//EN" "http://www.w3.org/Graphics/SVG/1.1/DTD/svg11.dtd">
<svg version="1.1" id="Layer_1" xmlns="http://www.w3.org/2000/svg" xmlns:xlink="http://www.w3.org/1999/xlink" x="0px" y="0px"
	 width="1440px" height="139px" viewBox="0 0 1440 139" enable-background="new 0 0 1440 139" xml:space="preserve">
<g>
	<defs>
		<filter id="Adobe_OpacityMaskFilter" filterUnits="userSpaceOnUse" x="0" y="-702" width="1558.802" height="841.156">
			<feColorMatrix  type="matrix" values="1 0 0 0 0  0 1 0 0 0  0 0 1 0 0  0 0 0 1 0"/>
		</filter>
	</defs>
	<mask maskUnits="userSpaceOnUse" x="0" y="-702" width="1558.802" height="841.156" id="b">
		<g filter="url(#Adobe_OpacityMaskFilter)">
			<path id="a" fill="#FFFFFF" d="M0,0h1440v139H0V0z"/>
		</g>
	</mask>
	<g mask="url(#b)">
		<path fill="#A5DEE5" d="M0-574.4c152.937-85.68,298.933-101.818,437.988-48.413c208.583,80.107,457.536,53.405,594.167,0
			c136.63-53.405,140.541-118.522,407.845-48.963c267.304,69.561,0,698.192,0,698.192s-211.887,128.179-591.858,64.09
			C594.828,47.779,312.114,63.996,0,139.156V-574.4z"/>
		<path fill="none" d="M750-537h560V23H750V-537z"/>
	</g>
</g>
</svg>
