<?xml version="1.0" encoding="utf-8"?>
<!-- Generator: Adobe Illustrator 16.0.0, SVG Export Plug-In . SVG Version: 6.00 Build 0)  -->
<!DOCTYPE svg PUBLIC "-//W3C//DTD SVG 1.1//EN" "http://www.w3.org/Graphics/SVG/1.1/DTD/svg11.dtd">
<svg version="1.1" id="Layer_1" xmlns="http://www.w3.org/2000/svg" xmlns:xlink="http://www.w3.org/1999/xlink" x="0px" y="0px"
	 width="1440px" height="156px" viewBox="0 0 1440 156" enable-background="new 0 0 1440 156" xml:space="preserve">
<g>
	<defs>
		<filter id="Adobe_OpacityMaskFilter" filterUnits="userSpaceOnUse" x="-101" y="0" width="1643.16" height="802.767">
			<feColorMatrix  type="matrix" values="1 0 0 0 0  0 1 0 0 0  0 0 1 0 0  0 0 0 1 0"/>
		</filter>
	</defs>
	<mask maskUnits="userSpaceOnUse" x="-101" y="0" width="1643.16" height="802.767" id="b">
		<g filter="url(#Adobe_OpacityMaskFilter)">
			<path id="a" fill="#FFFFFF" d="M0,0h1440v156H0V0z"/>
		</g>
	</mask>
	<g mask="url(#b)">
		<path fill="#A5DEE5" d="M-5.845,142.309C254.493,0,483.665-35.577,681.673,35.578c297.011,106.73,536.472,92.279,752.482,0
			c144.006-61.52,144.006,146.902,0,625.271c-235.532,101.575-436.707,121.979-603.526,61.208
			C580.4,630.902,200.12,630.902,0.438,779.207C-132.685,878.077-134.779,665.777-5.845,142.309z"/>
		<path fill="none" d="M760,120h560v560H760V120z"/>
	</g>
</g>
</svg>
