<?xml version="1.0" encoding="utf-8"?>
<!-- Generator: Adobe Illustrator 16.0.0, SVG Export Plug-In . SVG Version: 6.00 Build 0)  -->
<!DOCTYPE svg PUBLIC "-//W3C//DTD SVG 1.1//EN" "http://www.w3.org/Graphics/SVG/1.1/DTD/svg11.dtd">
<svg version="1.1" id="Layer_1" xmlns="http://www.w3.org/2000/svg" xmlns:xlink="http://www.w3.org/1999/xlink" x="0px" y="0px"
	 width="47px" height="41px" viewBox="0 0 47 41" enable-background="new 0 0 47 41" xml:space="preserve">
<g transform="translate(-284 -1628)">
	<path fill="#FF6347" d="M307.416,1629.333c-1.729,0.002-3.13,1.403-3.132,3.132v0.76c0.002,1.728,1.402,3.127,3.13,3.13h0.002
		c0.836,0,1.621-0.325,2.213-0.916c0.59-0.586,0.92-1.384,0.918-2.215v-0.758c0.002-0.831-0.328-1.628-0.917-2.214
		C309.045,1629.662,308.247,1629.332,307.416,1629.333L307.416,1629.333z M307.416,1637.523h-0.002
		c-2.373-0.003-4.294-1.926-4.296-4.299v-0.76c0.003-2.372,1.926-4.294,4.298-4.297c1.141-0.002,2.234,0.451,3.039,1.26
		c0.809,0.805,1.262,1.898,1.259,3.039v0.758c0.003,1.141-0.45,2.236-1.26,3.04C309.65,1637.073,308.557,1637.525,307.416,1637.523
		L307.416,1637.523z M303.925,1668.759h-1.167l0.003-23.916h1.166L303.925,1668.759 M312.066,1668.759H310.9l0.002-23.916h1.166
		L312.066,1668.759 M307.997,1668.759h-1.168v-15.069h1.168V1668.759"/>
	<path fill="#FF6347" d="M313.534,1654.273h-2.048v-1.166h2.048c0.425-0.002,0.768-0.346,0.768-0.771v-9.357
		c0.003-1.224-0.781-2.31-1.942-2.694c-3.211-1.058-6.676-1.058-9.887-0.001c-1.162,0.383-1.946,1.47-1.944,2.694l-0.002,9.358
		c0.001,0.425,0.346,0.769,0.77,0.769h2.047v1.166h-2.049c-1.068-0.002-1.934-0.868-1.934-1.937v-9.356
		c-0.001-1.727,1.105-3.26,2.745-3.801c3.449-1.135,7.172-1.135,10.622,0c1.639,0.542,2.746,2.075,2.742,3.802v9.358
		C315.468,1653.406,314.602,1654.271,313.534,1654.273 M322.107,1631.926c-1.729,0.002-3.129,1.402-3.131,3.13v0.76
		c0,0.835,0.325,1.622,0.916,2.214c0.592,0.59,1.379,0.917,2.215,0.917c1.729-0.002,3.13-1.403,3.131-3.132v-0.758
		C325.236,1633.328,323.836,1631.928,322.107,1631.926L322.107,1631.926z M322.107,1640.113c-1.141,0.003-2.234-0.45-3.039-1.258
		c-0.809-0.804-1.263-1.899-1.26-3.04v-0.76c0.004-2.372,1.926-4.293,4.299-4.296c2.372,0.003,4.295,1.926,4.297,4.298v0.758
		C326.402,1638.188,324.479,1640.11,322.107,1640.113L322.107,1640.113z M292.723,1631.922c-0.831-0.002-1.628,0.328-2.214,0.917
		c-0.589,0.586-0.919,1.384-0.917,2.215v0.758c0.002,1.728,1.402,3.128,3.13,3.131c1.729-0.001,3.129-1.401,3.133-3.13v-0.76
		C295.852,1633.325,294.452,1631.925,292.723,1631.922L292.723,1631.922L292.723,1631.922z M292.723,1640.11
		c-2.373-0.002-4.295-1.925-4.297-4.298v-0.758c0-1.15,0.447-2.229,1.259-3.04c0.804-0.808,1.898-1.261,3.038-1.258
		c2.373,0.002,4.296,1.925,4.299,4.298v0.759C297.018,1638.186,295.095,1640.107,292.723,1640.11L292.723,1640.11z M326.759,1668.76
		h-1.167l0.001-21.325h1.167L326.759,1668.76"/>
	<path fill="#FF6347" d="M328.225,1656.864h-2.048v-1.166h2.048c0.424-0.001,0.768-0.345,0.769-0.769l0.001-9.358
		c0.001-1.224-0.782-2.31-1.943-2.694c-3.211-1.058-6.676-1.058-9.888-0.001l-0.367-1.107c3.449-1.134,7.171-1.134,10.62,0.001
		c1.64,0.542,2.746,2.074,2.745,3.801l-0.001,9.358C330.158,1655.998,329.292,1656.863,328.225,1656.864 M318.617,1668.76h-1.167
		l0.001-21.326h1.167L318.617,1668.76 M322.688,1668.76h-1.166v-12.479h1.166V1668.76 M289.232,1668.756h-1.167l0.003-21.325h1.166
		L289.232,1668.756 M293.304,1668.756h-1.167l0.001-12.479h1.167L293.304,1668.756 M297.374,1668.757h-1.165v-21.325h1.167
		L297.374,1668.757"/>
	<path fill="#FF6347" d="M288.65,1656.859h-2.048c-1.068,0-1.934-0.866-1.935-1.935v-9.357c-0.002-1.727,1.105-3.26,2.745-3.801
		c3.449-1.137,7.172-1.137,10.621,0l-0.367,1.108c-3.21-1.06-6.676-1.06-9.887-0.001c-1.162,0.384-1.945,1.47-1.944,2.694
		l-0.002,9.357c0,0.424,0.345,0.769,0.77,0.769h2.047V1656.859"/>
</g>
</svg>
