<?xml version="1.0" encoding="utf-8"?>
<!-- Generator: Adobe Illustrator 16.0.0, SVG Export Plug-In . SVG Version: 6.00 Build 0)  -->
<!DOCTYPE svg PUBLIC "-//W3C//DTD SVG 1.1//EN" "http://www.w3.org/Graphics/SVG/1.1/DTD/svg11.dtd">
<svg version="1.1" id="Layer_1" xmlns="http://www.w3.org/2000/svg" xmlns:xlink="http://www.w3.org/1999/xlink" x="0px" y="0px"
	 width="600px" height="217px" viewBox="0 0 600 217" enable-background="new 0 0 600 217" xml:space="preserve">
<g>
	<g>
		<path fill="#FFFFFF" d="M194.525,66.869c-3,0.2-3-3,0-3.4c11.6-1.2,25.6-13.399,31.799-27.599c0.8-3,13.4-3.8,12.8,0
			c-10.8,26.199-20,53.199-32.599,78.599c5-6.2,10.8-12.6,18-20.4c-0.2-3,0-5.6,0.2-7.8c0.6-2.2,3.4-6.2,4.4-1.2c0,1,0.2,2,0.4,3
			l0.2-0.6c6.4-7.2,59.799-52,65.999-55c16.6-7.6,20.4,3.4,11.6,7.6c-3,1.4-24,12.8-40.6,23.8c-18,12.2-32,24.2-36,28.6
			c5.8,21,10,31,23.8,48c6,7.399,12.8,11.999,18,11.999c9.8,0,5-11.199,1.8-16c-2.8-4.199,1.4-3.399,3.8-1.199
			c1.4,1.6,4.4,7,4.4,10.6c-0.2,8.2-10.4,12-15.4,12c-25.399,0-36.999-32.399-41.799-58.599c-11.6,13.6-23.799,28.199-30.799,37.799
			c-11.8,19.199-25,34.8-39.399,39.199c-6.6,2.2-12,2.2-16.8,0.8c-5.6-1.8-9.2-5.6-11-11.6c-1-3.399,1.4-8.399,3.4-1
			c1.4,4,3.8,6.4,7.6,7.4c3.2,0.6,9.2,1.399,13.4,0c15.8-5,29-21.8,40-42c12.399-23.399,21.399-48.999,28.799-73.999
			C212.725,62.869,202.725,66.068,194.525,66.869z"/>
		<path fill="#FFFFFF" d="M145.123,179.033c-2.439,0-4.754-0.329-7.077-1.007c-5.962-1.916-9.774-5.928-11.678-12.272
			c-0.531-1.804-0.264-4.124,0.605-5.286c0.402-0.537,0.938-0.833,1.509-0.833c1.347,0,2.367,1.452,3.209,4.571
			c1.279,3.646,3.475,5.796,6.889,6.694c1.781,0.331,4.579,0.744,7.393,0.744c2.161,0,3.99-0.244,5.437-0.727
			c13.681-4.329,26.577-17.912,39.437-41.529c10.251-19.345,19.112-41.872,27.783-70.667c-6.619,4.995-15.188,8.282-24.007,9.143
			c-0.144,0.01-0.254,0.014-0.361,0.014c-1.942,0-2.907-1.207-2.981-2.328c-0.087-1.309,0.955-2.784,3.113-3.072
			c11.286-1.168,24.875-12.998,30.989-26.949c0.783-2.542,5.832-3.218,8.42-3.218c1.602,0,4.478,0.221,5.741,1.699
			c0.49,0.573,0.687,1.271,0.569,2.016l-0.063,0.226c-3.475,8.43-6.842,17.092-10.098,25.469
			c-5.916,15.219-12.005,30.883-19.051,45.964c3.535-4.089,7.58-8.538,12.602-13.98c-0.159-2.873,0.033-5.383,0.228-7.526
			l0.031-0.172c0.371-1.36,1.846-4.342,3.813-4.342c1.254,0,2.106,1.08,2.532,3.209l0.02,0.196c0,0.173,0.007,0.346,0.019,0.521
			c9.859-9.792,58.747-50.925,65.144-54.021c3.934-1.801,7.409-2.709,10.347-2.709c4.563,0,6.695,2.243,7.171,4.342
			c0.655,2.893-1.375,6.016-5.052,7.771c-3.019,1.409-24.007,12.817-40.478,23.731c-17.181,11.645-31.007,23.359-35.439,28.038
			c5.75,20.725,10.023,30.54,23.463,47.098c5.817,7.173,12.416,11.629,17.223,11.629c2.227,0,3.693-0.631,4.359-1.874
			c1.619-3.023-1.221-9.315-3.391-12.571c-0.672-1.009-1.496-2.481-0.884-3.625c0.186-0.348,0.663-0.932,1.762-0.932
			c1.281,0,3.103,0.85,4.429,2.065l0.077,0.079c1.578,1.802,4.647,7.409,4.647,11.258c-0.211,8.664-10.627,13-16.4,13
			c-26.911,0-38.037-35.004-42.394-57.36c-9.46,11.109-22.162,26.226-29.397,36.149c-13.919,22.654-26.99,35.618-39.916,39.566
			C151.771,178.438,148.396,179.033,145.123,179.033z M128.514,161.744c-0.318,0.517-0.639,2.047-0.229,3.44
			c1.699,5.661,5.083,9.238,10.347,10.93c4.984,1.454,10.167,1.207,16.177-0.796c12.462-3.809,25.167-16.489,38.864-38.774
			c7.671-10.526,21.301-26.682,30.891-37.925l1.365-1.601l0.379,2.069c3.954,21.579,14.514,57.779,40.816,57.779
			c4.932,0,14.224-3.786,14.4-11.024c0-3.318-2.891-8.439-4.118-9.876c-1.006-0.905-2.305-1.473-2.984-1.501
			c0.055,0.229,0.224,0.682,0.734,1.446c2.332,3.498,5.69,10.515,3.49,14.625c-1.041,1.944-3.1,2.93-6.122,2.93
			c-5.477,0-12.496-4.624-18.776-12.369c-13.782-16.978-18.077-26.967-23.987-48.363l-0.147-0.531l0.371-0.408
			c4.164-4.58,18.141-16.529,36.178-28.754c16.562-10.975,37.702-22.461,40.738-23.878c3.242-1.547,4.324-3.888,3.955-5.521
			c-0.395-1.743-2.347-2.783-5.221-2.783c-2.612,0-5.896,0.871-9.496,2.519c-5.523,2.673-58.28,46.644-65.532,54.604l-1.323,3.978
			l-0.74-3.695c-0.2-0.997-0.406-2.027-0.419-3.092c-0.271-1.292-0.605-1.521-0.609-1.523c-0.352,0.066-1.409,1.45-1.804,2.801
			c-0.195,2.153-0.381,4.684-0.19,7.551l0.029,0.429l-0.292,0.316c-7.75,8.396-13.172,14.417-17.956,20.35l-5.732,7.109l4.058-8.182
			c8.521-17.178,15.605-35.403,22.457-53.028c3.243-8.343,6.595-16.967,10.059-25.375c0.002-0.118-0.035-0.209-0.123-0.312
			c-0.394-0.46-1.735-0.998-4.22-0.998c-3.623,0-6.318,1.094-6.511,1.817l-0.05,0.142c-6.364,14.577-20.689,26.961-32.613,28.194
			c-0.959,0.128-1.374,0.636-1.353,0.954c0.021,0.307,0.505,0.5,1.183,0.455c9.561-0.934,18.83-4.852,25.398-10.747l2.63-2.36
			l-1.003,3.388c-9.01,30.438-18.185,54.01-28.875,74.183c-13.125,24.104-26.398,37.997-40.582,42.485
			c-1.636,0.546-3.678,0.824-6.055,0.824c-2.967,0-5.896-0.432-7.831-0.795c-4.129-1.084-6.84-3.713-8.359-8.053
			C129.229,162.759,128.743,162.006,128.514,161.744z"/>
	</g>
	<path fill="#FFFFFF" d="M355.725,97.642c0,0.254-0.021,0.625-0.063,1.111c-0.043,0.487-0.149,0.974-0.318,1.46
		c-0.169,0.487-0.371,0.92-0.603,1.301c-0.233,0.381-0.54,0.571-0.921,0.571c-0.254,0-0.677-0.01-1.27-0.032
		c-0.593-0.021-1.217-0.053-1.872-0.095c-0.657-0.042-1.28-0.073-1.872-0.095c-0.594-0.021-1.016-0.032-1.27-0.032
		c-8.084,0.508-14.813,3.47-20.186,8.887c-5.291,5.291-9.861,12.357-13.711,21.201c-0.721,1.819-1.429,3.704-2.127,5.649
		c-0.698,1.946-1.365,3.999-2,6.157c-0.339,1.186-0.582,2.232-0.729,3.142c-0.149,0.911-0.392,1.873-0.729,2.889
		c-0.086,0.338-0.445,0.666-1.08,0.984c-0.635,0.316-1.344,0.603-2.126,0.856c-0.784,0.254-1.534,0.465-2.253,0.635
		c-0.721,0.169-1.207,0.254-1.461,0.254c-2.919,0.169-4.57-2.856-4.951-9.077c-0.127-1.692-0.181-3.227-0.159-4.602
		c0.021-1.375,0.073-2.708,0.159-4c0.084-1.29,0.2-2.644,0.349-4.063c0.148-1.417,0.307-3.015,0.476-4.792
		c0.211-2.2,0.465-4.739,0.762-7.617c0.295-2.877,0.635-5.776,1.016-8.696s0.783-5.702,1.206-8.347
		c0.422-2.644,0.867-4.834,1.333-6.57c0.465-1.989,1.11-3.469,1.936-4.443c0.825-0.973,2.041-1.501,3.65-1.587
		c0.422,0,0.877,0.117,1.364,0.349c0.485,0.233,0.931,0.54,1.333,0.92s0.74,0.784,1.016,1.206c0.275,0.423,0.434,0.804,0.477,1.143
		c0.041,1.058,0.021,2.212-0.064,3.459c-0.085,1.249-0.232,2.539-0.443,3.872c-0.213,1.333-0.467,2.677-0.762,4.031
		c-0.297,1.355-0.594,2.645-0.889,3.872c-0.594,2.412-1.048,4.475-1.365,6.189s-0.582,3.375-0.793,4.983
		c-0.213,1.609-0.424,3.333-0.635,5.173c-0.213,1.841-0.487,4.117-0.826,6.824c0.72-1.607,1.344-2.983,1.873-4.126
		s1.005-2.147,1.428-3.015c0.423-0.867,0.814-1.64,1.175-2.317c0.358-0.676,0.751-1.386,1.175-2.126
		c0.422-0.74,0.889-1.555,1.396-2.444s1.143-1.968,1.904-3.237c2.961-4.909,6.135-8.918,9.521-12.029
		c3.385-3.11,6.643-5.342,9.775-6.697c3.555-1.692,6.475-2.603,8.76-2.729c1.1-0.042,2.412,0.022,3.936,0.19
		c1.523,0.169,2.982,0.487,4.379,0.952c1.396,0.466,2.592,1.069,3.587,1.809C355.227,95.685,355.725,96.584,355.725,97.642z"/>
	<path fill="#FFFFFF" d="M414.631,106.465c0,1.355-0.063,2.645-0.189,3.872c-0.127,1.228-0.318,2.412-0.572,3.555
		s-0.592,2.296-1.016,3.459c-0.424,1.165-0.932,2.359-1.523,3.586c-0.592,1.312-1.672,2.878-3.236,4.697
		c-1.566,1.82-3.439,3.703-5.619,5.649s-4.57,3.872-7.172,5.776c-2.604,1.904-5.236,3.618-7.902,5.142s-5.279,2.751-7.84,3.682
		c-2.561,0.932-4.877,1.396-6.951,1.396c-2.836,0-5.311-0.476-7.426-1.429c-2.117-0.951-3.873-2.199-5.27-3.744
		s-2.443-3.311-3.142-5.301c-0.698-1.988-1.048-3.999-1.048-6.03c0-1.354,0.169-2.897,0.508-4.634
		c0.339-1.734,0.783-3.533,1.334-5.396c0.549-1.862,1.205-3.766,1.967-5.713c0.762-1.946,1.565-3.809,2.412-5.586
		s1.715-3.428,2.604-4.951s1.755-2.814,2.602-3.872c1.48-1.862,3.27-3.682,5.363-5.459c2.096-1.777,4.391-3.354,6.889-4.729
		c2.496-1.375,5.172-2.485,8.029-3.333c2.855-0.846,5.809-1.27,8.855-1.27c2.285,0,4.527,0.562,6.729,1.682
		c2.199,1.122,4.156,2.634,5.871,4.539c1.713,1.904,3.1,4.105,4.158,6.602C414.102,101.155,414.631,103.757,414.631,106.465z
		 M404.729,108.306c0-4.189-1.195-7.468-3.586-9.839c-2.391-2.37-5.83-3.555-10.314-3.555c-1.523,0-3.068,0.403-4.635,1.206
		c-1.566,0.804-3.068,1.799-4.506,2.983c-1.439,1.185-2.762,2.444-3.969,3.777c-1.205,1.333-2.211,2.529-3.014,3.586
		c-0.805,1.101-1.693,2.593-2.666,4.475c-0.975,1.883-1.895,3.894-2.762,6.03c-0.867,2.137-1.588,4.275-2.158,6.411
		c-0.571,2.137-0.857,4.009-0.857,5.618c0,0.974,0.191,1.958,0.572,2.952s0.92,1.883,1.617,2.666
		c0.699,0.783,1.535,1.428,2.508,1.936s2.053,0.762,3.238,0.762c1.27,0,2.908-0.381,4.918-1.143s4.148-1.809,6.412-3.143
		c2.264-1.332,4.539-2.92,6.824-4.76c2.285-1.842,4.348-3.841,6.188-5.999c1.842-2.158,3.334-4.421,4.477-6.792
		C404.158,113.109,404.729,110.718,404.729,108.306z"/>
	<path fill="#FFFFFF" d="M512.957,123.413c0,0.466-0.508,1.27-1.523,2.412s-2.381,2.423-4.094,3.841
		c-1.715,1.418-3.682,2.898-5.904,4.443c-2.221,1.545-4.539,2.962-6.951,4.252c-2.412,1.292-4.814,2.36-7.203,3.206
		c-2.393,0.847-4.625,1.291-6.697,1.333c-2.92-0.042-5.418-0.211-7.49-0.508c-2.074-0.296-4.063-0.613-5.967-0.952
		c-1.904-0.338-3.883-0.677-5.936-1.016c-2.053-0.338-4.496-0.592-7.332-0.762c-1.777-0.127-3.629-0.031-5.553,0.286
		c-1.928,0.316-3.746,0.783-5.459,1.396c-1.715,0.613-3.26,1.312-4.635,2.094c-1.375,0.784-2.424,1.599-3.143,2.444
		c-0.424,0.466-0.879,0.995-1.363,1.587c-0.488,0.593-1.07,1.133-1.746,1.619c-0.678,0.485-1.461,0.889-2.35,1.205
		c-0.889,0.318-1.947,0.434-3.174,0.35c-0.846-0.043-1.533-0.285-2.063-0.73c-0.529-0.443-0.92-1.005-1.174-1.682
		s-0.412-1.406-0.477-2.189c-0.063-0.783-0.074-1.556-0.031-2.317c0-0.381,0.146-0.825,0.443-1.333s0.635-1.016,1.016-1.523
		s0.771-0.984,1.176-1.429c0.4-0.444,0.707-0.771,0.92-0.983c1.057-1.057,2.264-2.254,3.617-3.586
		c1.354-1.334,2.719-2.688,4.096-4.063c1.373-1.375,2.697-2.74,3.967-4.095s2.391-2.603,3.363-3.745
		c1.904-2.243,3.842-4.443,5.809-6.602c1.969-2.158,3.85-4.253,5.65-6.284c1.797-2.031,3.469-4.009,5.014-5.935
		c1.545-1.925,2.824-3.755,3.84-5.491l-0.127-1.143c-0.043-0.295-0.084-0.571-0.127-0.825s-0.084-0.381-0.127-0.381
		c-0.084,0-0.285,0.011-0.602,0.032c-0.318,0.022-0.604,0.074-0.857,0.159c-0.805,0.169-1.904,0.349-3.301,0.54
		s-2.91,0.392-4.539,0.603c-1.629,0.212-3.313,0.423-5.047,0.635c-1.734,0.212-3.375,0.392-4.918,0.54
		c-1.547,0.149-2.889,0.265-4.031,0.349c-1.143,0.085-1.947,0.106-2.412,0.063c-1.609-0.084-3.238-0.275-4.889-0.571
		c-1.65-0.295-3.174-0.676-4.57-1.143c-0.381-1.1-0.529-2.222-0.443-3.364c0.084-1.143,0.35-2.179,0.793-3.11
		c0.445-0.93,0.973-1.735,1.588-2.412c0.611-0.676,1.289-1.195,2.031-1.555c0.738-0.359,1.428-0.518,2.063-0.476
		c0.338,0,0.654,0.095,0.951,0.286s0.699,0.423,1.207,0.698c0.508,0.276,1.205,0.571,2.094,0.889s2.115,0.625,3.682,0.92
		c0.508,0.042,1.303,0.032,2.381-0.032c1.08-0.063,2.254-0.148,3.523-0.254c1.27-0.105,2.549-0.232,3.84-0.381
		c1.291-0.148,2.4-0.286,3.332-0.413c1.186-0.168,2.455-0.338,3.809-0.508c1.354-0.168,2.73-0.307,4.127-0.413
		c1.396-0.105,2.781-0.18,4.158-0.222c1.373-0.042,2.697-0.021,3.967,0.063c0.803,0.042,1.682,0.127,2.635,0.254
		c0.951,0.127,1.84,0.328,2.666,0.603c0.824,0.276,1.49,0.677,1.998,1.206c0.508,0.53,0.74,1.238,0.699,2.126
		c-0.086,0.72-0.318,1.471-0.699,2.253c-0.381,0.784-0.824,1.534-1.332,2.253c-1.102,1.439-2.709,3.386-4.824,5.84
		c-2.117,2.455-4.529,5.259-7.236,8.411c-2.709,3.153-5.617,6.592-8.729,10.315c-3.109,3.724-6.189,7.575-9.236,11.553
		c0.932-0.042,1.947-0.116,3.047-0.222s2.242-0.212,3.428-0.318c1.186-0.104,2.359-0.18,3.523-0.222s2.254-0.042,3.27,0
		c2.199,0.127,4.189,0.286,5.967,0.476c1.777,0.191,3.48,0.371,5.109,0.54s3.289,0.308,4.982,0.413s3.576,0.158,5.65,0.158
		c5.162,0,10.379-1.206,15.646-3.618c5.27-2.412,10.611-5.649,16.027-9.712c0.338,0.593,0.625,1.165,0.857,1.714
		C512.84,121.805,512.957,122.524,512.957,123.413z"/>
	<path fill="#FFFFFF" d="M568.625,117.319c0,1.482-0.551,3.089-1.65,4.824c-1.1,1.736-2.666,3.682-4.697,5.84
		c-2.328,2.454-4.887,4.729-7.68,6.823c-2.793,2.096-5.672,3.915-8.633,5.459c-2.963,1.546-5.967,2.762-9.014,3.65
		s-5.988,1.333-8.824,1.333c-6.645,0-11.785-2.137-15.424-6.411c-3.641-4.273-5.459-10.537-5.459-18.789
		c0-2.624,0.232-5.3,0.697-8.03s1.152-5.427,2.063-8.093s2.053-5.247,3.428-7.744c1.375-2.497,2.973-4.824,4.793-6.982
		c1.143-1.311,2.412-2.644,3.809-3.999c1.396-1.354,2.941-2.571,4.635-3.65c1.691-1.079,3.543-1.957,5.553-2.634
		c2.01-0.676,4.201-1.016,6.57-1.016c1.693,0,3.217,0.328,4.57,0.984c1.354,0.657,2.496,1.492,3.428,2.507s1.641,2.158,2.127,3.428
		s0.73,2.518,0.73,3.745c0,2.582-0.699,5.195-2.096,7.839c-1.396,2.645-3.363,5.311-5.902,7.998
		c-2.539,2.688-5.586,5.375-9.141,8.062c-3.555,2.688-7.512,5.364-11.871,8.03c-0.592,0.339-1.186,0.709-1.777,1.111
		c-0.592,0.403-0.889,0.899-0.889,1.492c0,1.27,0.17,2.603,0.508,3.999s0.953,2.677,1.842,3.841s2.084,2.126,3.586,2.888
		s3.416,1.143,5.744,1.143c2.963,0,5.977-0.476,9.045-1.429c3.068-0.951,6.072-2.273,9.014-3.967c2.941-1.691,5.799-3.703,8.57-6.03
		c2.771-2.327,5.363-4.845,7.775-7.554c1.354-1.481,2.434-2.222,3.238-2.222c0.465,0,0.803,0.276,1.016,0.825
		C568.52,115.14,568.625,116.05,568.625,117.319z M539.172,90.215c0-0.465-0.127-0.889-0.381-1.27s-0.561-0.698-0.92-0.952
		s-0.74-0.454-1.143-0.603c-0.402-0.148-0.752-0.222-1.047-0.222c-1.863,0-3.768,0.667-5.713,2
		c-1.947,1.333-3.768,3.185-5.459,5.554c-1.693,2.371-3.174,5.184-4.443,8.442c-1.27,3.259-2.139,6.792-2.604,10.601
		c0.592-0.381,1.375-0.93,2.35-1.65c0.973-0.719,2.02-1.513,3.141-2.38c1.121-0.867,2.244-1.746,3.365-2.634
		s2.127-1.714,3.016-2.476c1.945-1.65,3.555-3.12,4.824-4.412c1.27-1.291,2.273-2.476,3.014-3.555s1.26-2.136,1.557-3.174
		C539.023,92.447,539.172,91.357,539.172,90.215z"/>
</g>
<g>
	<path fill="#FFFFFF" d="M105.219,95.838c0.839,0.026,1.542-0.221,2.11-0.881c0.995-1.191,0.878-2.82-0.367-3.813L41.998,36.422
		c-1.246-0.992-2.925-0.914-3.919,0.274c-0.995,1.188-0.877,2.821,0.366,3.812l64.965,54.723
		C103.963,95.658,104.66,95.817,105.219,95.838z"/>
	<path fill="#FFFFFF" d="M117.107,105.737c0.838,0.03,1.683-0.346,2.25-0.873c0.995-1.187,0.878-2.82-0.367-3.812l-4.423-3.679
		c-1.247-0.992-2.925-0.91-3.921,0.276c-0.995,1.188-0.875,2.819,0.367,3.813l4.424,3.676
		C115.853,105.561,116.549,105.72,117.107,105.737z"/>
	<path fill="#FFFFFF" d="M100.631,124.588c0.561,0.021,1.121-0.096,1.685-0.482c1.271-0.905,1.572-2.527,0.609-3.779L42.55,36.849
		c-0.961-1.254-2.633-1.583-3.904-0.676c-1.271,0.907-1.575,2.526-0.612,3.78l60.376,83.477
		C98.96,124.127,99.793,124.562,100.631,124.588z"/>
	<path fill="#FFFFFF" d="M62.906,153.582c1.258,0.043,2.521-0.322,3.65-1.098l0,0l33.497-26.554l15.352,22.641
		c1.782,2.504,4.843,3.691,7.93,2.845c2.947-0.849,4.937-3.224,4.977-6.208l0.445-32.561l37.478-10.813
		c2.248-0.738,3.671-2.59,3.843-4.891c0.17-2.167-1.2-4.249-3.145-5.263L40.083,33.236c-0.973-0.441-2.093-0.343-2.94,0.307
		c-0.848,0.649-1.282,1.585-1.015,2.544l21.247,112.831c0.396,1.912,1.77,3.586,3.58,4.188
		C61.649,153.403,62.346,153.562,62.906,153.582z M62.98,148.156L62.98,148.156L42.642,40.381L164.631,96.49l-39.444,11.422
		c-1.123,0.368-1.975,1.29-1.992,2.512l-0.47,34.458c-0.011,0.816-0.715,1.198-0.994,1.187c-0.283,0.129-1.123,0.235-1.672-0.598
		l-17.133-25.145c-0.407-0.693-1.102-1.125-1.94-1.153c-0.837-0.164-1.539,0.086-2.245,0.603L62.98,148.156z"/>
</g>
<g>
	<path fill="#FF6347" d="M133.296,44.027c-13.044-0.26-23.801,8.671-24.026,19.947c-0.083,4.157,1.282,8.048,3.682,11.323
		c-0.399,3.72-1.433,8.951-4.136,11.452c0,0,8.12-0.934,13.667-4.019c0.007,0.003,0.013,0.005,0.02,0.009
		c2.278-1.371,4.561-2.78,5.036-3.141c0.25-0.327,0.723-0.417,1.086-0.197c0.239,0.146,0.386,0.403,0.385,0.674
		c0,0.489-0.015,0.616-4.616,3.381c2.516,0.852,5.236,1.351,8.088,1.409c13.041,0.26,23.797-8.671,24.021-19.948
		C156.728,53.641,146.337,44.288,133.296,44.027z"/>
	
		<ellipse transform="matrix(0.02 -0.9998 0.9998 0.02 76.7415 207.6381)" fill="#FFFFFF" cx="144.288" cy="64.673" rx="2.355" ry="2.443"/>
	
		<ellipse transform="matrix(0.0199 -0.9998 0.9998 0.0199 65.8116 196.0252)" fill="#FFFFFF" cx="132.889" cy="64.445" rx="2.355" ry="2.445"/>
	
		<ellipse transform="matrix(0.0198 -0.9998 0.9998 0.0198 54.8758 184.4087)" fill="#FFFFFF" cx="121.486" cy="64.218" rx="2.355" ry="2.442"/>
</g>
</svg>
